<svg width="28" height="22" viewBox="0 0 28 22" fill="none" xmlns="http://www.w3.org/2000/svg">
<path fill-rule="evenodd" clip-rule="evenodd" d="M27.1628 10.3535L23.0938 4.09818C22.9013 3.80223 22.5738 3.62396 22.2227 3.62396H17.1609V1.38385C17.1609 0.804011 16.6945 0.333984 16.1192 0.333984H1.70832C1.13301 0.333984 0.666656 0.804011 0.666656 1.38385V18.5177C0.666656 19.0976 1.13301 19.5676 1.70832 19.5676H5.01249C5.44249 20.7895 6.60035 21.6673 7.95832 21.6673C9.31629 21.6673 10.4741 20.7895 10.9042 19.5676H18.2597C18.6897 20.7895 19.8476 21.6673 21.2056 21.6673C22.5635 21.6673 23.7213 20.7895 24.1514 19.5676H26.2917C26.867 19.5676 27.3333 19.0976 27.3333 18.5177V10.9291C27.3333 10.7246 27.2741 10.5245 27.1628 10.3535ZM7.95833 19.5659C7.38396 19.5659 6.91667 19.0949 6.91667 18.516C6.91667 17.9371 7.38396 17.4661 7.95833 17.4661C8.53271 17.4661 9 17.9371 9 18.516C9 19.0949 8.53271 19.5659 7.95833 19.5659ZM15.0776 17.4664H10.9041C10.4741 16.2445 9.31625 15.3667 7.95828 15.3667C6.60031 15.3667 5.4425 16.2445 5.01245 17.4664H2.75V2.43229H15.0776V17.4664ZM21.2056 19.5659C20.6312 19.5659 20.1639 19.0949 20.1639 18.516C20.1639 17.9371 20.6312 17.4661 21.2056 17.4661C21.7799 17.4661 22.2472 17.9371 22.2472 18.516C22.2472 19.0949 21.7799 19.5659 21.2056 19.5659ZM25.25 17.4681H24.1514C23.7214 16.2462 22.5635 15.3684 21.2055 15.3684C19.8476 15.3684 18.6898 16.2462 18.2597 17.4681H17.1608V5.72396H21.66L25.25 11.2429V17.4681Z" fill="#7B8E98"/>
</svg>
