<svg width="22" height="21" viewBox="0 0 22 21" fill="none" xmlns="http://www.w3.org/2000/svg">
<path d="M7.19124 3.28998C7.19124 2.21295 5.88158 1.33984 4.26603 1.33984C2.65048 1.33984 1.34082 2.21295 1.34082 3.28998" stroke="#1A1A1A" stroke-width="1.8" stroke-linecap="round"/>
<path d="M20.842 3.28998C20.842 2.21295 19.5323 1.33984 17.9168 1.33984C16.3012 1.33984 14.9916 2.21295 14.9916 3.28998" stroke="#1A1A1A" stroke-width="1.8" stroke-linecap="round"/>
<path d="M3.291 16.2213C3.291 17.8368 5.03721 19.1465 7.19128 19.1465C9.34534 19.1465 11.0916 17.8368 11.0916 16.2213L11.0916 13.2961" stroke="#1A1A1A" stroke-width="1.8" stroke-linecap="round"/>
<path d="M18.8921 16.2213C18.8921 17.8368 17.1459 19.1465 14.9918 19.1465C12.8378 19.1465 11.0916 17.8368 11.0916 16.2213L11.0916 13.2961" stroke="#1A1A1A" stroke-width="1.8" stroke-linecap="round"/>
<ellipse cx="11.0915" cy="10.8595" rx="2.92521" ry="2.43767" stroke="#1A1A1A" stroke-width="1.8" stroke-linecap="round"/>
</svg>
