<svg width="25" height="24" viewBox="0 0 25 24" fill="none" xmlns="http://www.w3.org/2000/svg">
<g opacity="0.4">
<g clip-path="url(#clip0_3256_4220)">
<path fill-rule="evenodd" clip-rule="evenodd" d="M24.5 12C24.5 18.6274 19.1274 24 12.5 24C5.87258 24 0.5 18.6274 0.5 12C0.5 5.37258 5.87258 0 12.5 0C19.1274 0 24.5 5.37258 24.5 12ZM17.561 7.27896L5.99102 11.74C5.19802 12.05 5.21202 12.489 5.85502 12.693L8.81702 13.617L15.688 9.29096C16.007 9.07896 16.303 9.19896 16.061 9.41196L10.501 14.435L10.288 17.488C10.598 17.488 10.733 17.353 10.893 17.193L12.34 15.799L15.34 18.01C15.887 18.32 16.278 18.16 16.424 17.502L18.394 8.22096L18.393 8.22196C18.567 7.40996 18.098 7.08496 17.561 7.27896Z" fill="#1A1A1A"/>
</g>
</g>
<defs>
<clipPath id="clip0_3256_4220">
<rect width="24" height="24" fill="white" transform="translate(0.5)"/>
</clipPath>
</defs>
</svg>
