<svg width="25" height="24" viewBox="0 0 25 24" fill="none" xmlns="http://www.w3.org/2000/svg">
<g opacity="0.4">
<path fill-rule="evenodd" clip-rule="evenodd" d="M24.5 12C24.5 18.6274 19.1274 24 12.5 24C5.87258 24 0.5 18.6274 0.5 12C0.5 5.37258 5.87258 0 12.5 0C19.1274 0 24.5 5.37258 24.5 12ZM18.7109 8.01423C19.1706 8.01423 19.2743 8.24199 19.1706 8.55516C19.0086 9.27288 17.6635 11.1767 17.2469 11.7664C17.1677 11.8785 17.1221 11.9431 17.1244 11.9431C16.9613 12.1993 16.902 12.3132 17.1244 12.5979C17.2048 12.7031 17.3753 12.8637 17.5701 13.0473C17.7705 13.2361 17.9967 13.4492 18.1771 13.6512C18.8295 14.363 19.3337 14.9609 19.4671 15.3737C19.5857 15.7865 19.3781 16 18.9333 16H17.4061C17.0014 16 16.7928 15.7769 16.3482 15.3013C16.1576 15.0974 15.9235 14.8471 15.6121 14.548C14.7076 13.7082 14.3073 13.5943 14.0849 13.5943C13.7735 13.5943 13.6845 13.6655 13.6845 14.0925V15.4164C13.6845 15.7722 13.5659 15.9858 12.5873 15.9858C10.9712 15.9858 9.17711 15.0463 7.91681 13.2954C6.01895 10.7331 5.5 8.79715 5.5 8.41281C5.5 8.19929 5.57414 8 6.01895 8H7.56096C7.94647 8 8.09474 8.15658 8.24301 8.5694C8.99919 10.6619 10.2595 12.4982 10.7784 12.4982C10.9712 12.4982 11.0601 12.4128 11.0601 11.9431V9.77936C11.0235 9.16435 10.8005 8.89639 10.6352 8.69769C10.5326 8.57446 10.4522 8.47786 10.4522 8.34164C10.4522 8.17082 10.6005 8 10.8377 8H13.2397C13.5659 8 13.6845 8.17082 13.6845 8.54093V11.4591C13.6845 11.7722 13.818 11.8861 13.9218 11.8861C14.1145 11.8861 14.2776 11.7722 14.6335 11.4306C15.7307 10.2491 16.5165 8.42705 16.5165 8.42705C16.6203 8.21352 16.7982 8.01423 17.1837 8.01423H18.7109Z" fill="#1A1A1A"/>
</g>
</svg>
