<svg width="25" height="24" viewBox="0 0 25 24" fill="none" xmlns="http://www.w3.org/2000/svg">
<path fill-rule="evenodd" clip-rule="evenodd" d="M12.5 21C12.7115 21 13.0136 20.8627 13.2351 20.7353C18.9048 17.2059 22.5 13.098 22.5 8.92157C22.5 5.45098 20.0529 3 16.79 3C14.927 3 13.4164 3.86275 12.5 5.18627C11.6037 3.87255 10.073 3 8.20997 3C4.94713 3 2.5 5.45098 2.5 8.92157C2.5 13.098 6.09517 17.2059 11.7749 20.7353C11.9864 20.8627 12.2885 21 12.5 21ZM12.5 19.3431C12.4597 19.3431 12.3892 19.2941 12.2986 19.2255C8.07905 16.5 4.12135 12.5686 4.12135 8.92157C4.12135 6.31373 5.85347 4.57843 8.18983 4.57843C10.0831 4.57843 11.1707 5.72549 11.8152 6.70588C12.0871 7.09804 12.2583 7.20588 12.5 7.20588C12.7417 7.20588 12.8927 7.08824 13.1848 6.70588C13.8797 5.7451 14.927 4.57843 16.8102 4.57843C19.1465 4.57843 20.8787 6.31373 20.8787 8.92157C20.8787 12.5686 16.9209 16.5 12.7115 19.2255C12.6108 19.2941 12.5403 19.3431 12.5 19.3431Z" fill="#1A1A1A"/>
</svg>
