<svg width="20" height="20" viewBox="0 0 20 20" fill="none" xmlns="http://www.w3.org/2000/svg">
<path fill-rule="evenodd" clip-rule="evenodd" d="M15.5167 20C17.4602 20 18.5193 18.9924 18.5193 17.0687V12.0712C19.4756 11.888 20 11.1552 20 10.0865V7.52163C20 6.2799 19.3111 5.49618 18.0463 5.49618H15.8663C16.4422 4.93639 16.7815 4.20356 16.7815 3.37913C16.7815 1.40458 15.1979 0 13.2134 0C11.7429 0 10.5296 0.804071 9.99486 2.23919C9.46015 0.804071 8.25707 0 6.78663 0C4.79177 0 3.21851 1.40458 3.21851 3.37913C3.21851 4.20356 3.54756 4.93639 4.12339 5.49618H1.95373C0.750643 5.49618 0 6.2799 0 7.52163V10.0865C0 11.1552 0.514139 11.888 1.47044 12.0712V17.0687C1.47044 18.9924 2.53985 20 4.48329 20H15.5167ZM9.15167 5.49696H7.55784C5.86118 5.49696 4.9563 4.50968 4.9563 3.45116C4.9563 2.35192 5.7892 1.70052 6.88946 1.70052C8.15424 1.70052 9.15167 2.66744 9.15167 4.28576V5.49696ZM12.4421 5.49696H10.838V4.28576C10.838 2.66744 11.8457 1.70052 13.1105 1.70052C14.2108 1.70052 15.0334 2.35192 15.0334 3.45116C15.0334 4.50968 14.1079 5.49696 12.4421 5.49696ZM9.08996 10.5758H2.37531C1.86117 10.5758 1.65552 10.3621 1.65552 9.85319V7.74632C1.65552 7.23742 1.86117 7.03385 2.37531 7.03385H9.08996V10.5758ZM17.635 10.5758H10.9101V7.03385H17.635C18.1491 7.03385 18.3445 7.23742 18.3445 7.74632V9.85319C18.3445 10.3621 18.1491 10.5758 17.635 10.5758ZM9.08999 18.4733H4.46274C3.60927 18.4733 3.12598 17.9949 3.12598 17.1501V12.112H9.08999V18.4733ZM15.527 18.4733H10.9101V12.112H16.8638V17.1501C16.8638 17.9949 16.3805 18.4733 15.527 18.4733Z" fill="#7B8E98"/>
</svg>
