<svg width="25" height="24" viewBox="0 0 25 24" fill="none" xmlns="http://www.w3.org/2000/svg">
<g opacity="0.4">
<g clip-path="url(#clip0_3256_4225)">
<path fill-rule="evenodd" clip-rule="evenodd" d="M12.497 0H12.503C19.1195 0 24.5 5.3835 24.5 12C24.5 18.6165 19.1195 24 12.503 24C10.0625 24 7.799 23.274 5.9015 22.017L1.289 23.4915L2.7845 19.0335C1.346 17.058 0.5 14.625 0.5 12C0.5 5.382 5.8805 0 12.497 0ZM17.1298 18.6393C18.0463 18.4413 19.1953 17.7633 19.4848 16.9458C19.7743 16.1268 19.7743 15.4293 19.6903 15.2808C19.6225 15.1629 19.4621 15.0857 19.2227 14.9704C19.1604 14.9404 19.0927 14.9078 19.0198 14.8713C18.6673 14.6958 16.9528 13.8483 16.6288 13.7358C16.3108 13.6158 16.0078 13.6578 15.7678 13.9968C15.7222 14.0607 15.6767 14.1247 15.6314 14.1884C15.3418 14.5956 15.0625 14.9884 14.8303 15.2388C14.6188 15.4638 14.2738 15.4923 13.9843 15.3723C13.9528 15.3591 13.9166 15.3445 13.8761 15.3281C13.4177 15.143 12.401 14.7324 11.1703 13.6368C10.1323 12.7128 9.42734 11.5623 9.22334 11.2173C9.02305 10.8712 9.19582 10.6682 9.35549 10.4807C9.35845 10.4772 9.3614 10.4737 9.36434 10.4703C9.46729 10.3429 9.56719 10.2368 9.66759 10.1302C9.73981 10.0536 9.81229 9.97662 9.88634 9.89127C9.89734 9.87859 9.90804 9.86629 9.91846 9.85432C10.0757 9.67352 10.1693 9.56586 10.2748 9.34077C10.3948 9.10827 10.3093 8.86827 10.2238 8.69127C10.165 8.56731 9.80163 7.68563 9.48967 6.92874C9.35618 6.60484 9.2321 6.3038 9.14534 6.09477C8.91284 5.53827 8.73584 5.51727 8.38334 5.50227C8.37254 5.50173 8.36163 5.50118 8.35062 5.50062C8.23919 5.49498 8.11648 5.48877 7.98134 5.48877C7.52234 5.48877 7.04384 5.62377 6.75434 5.91927C6.74423 5.9296 6.73368 5.94033 6.72274 5.95146C6.35237 6.32812 5.52734 7.16719 5.52734 8.83977C5.52734 10.5156 6.7164 12.1374 6.93641 12.4375C6.94247 12.4458 6.9478 12.453 6.95234 12.4593C6.96558 12.4767 6.99053 12.5128 7.02685 12.5654C7.47607 13.2159 9.66409 16.3845 12.9268 17.7363C15.6838 18.8793 16.5028 18.7728 17.1298 18.6393Z" fill="#1A1A1A"/>
</g>
</g>
<defs>
<clipPath id="clip0_3256_4225">
<rect width="24" height="24" fill="white" transform="translate(0.5)"/>
</clipPath>
</defs>
</svg>
