<svg width="25" height="24" viewBox="0 0 25 24" fill="none" xmlns="http://www.w3.org/2000/svg">
<g opacity="0.4">
<path d="M10.165 12C10.165 10.7109 11.2101 9.66599 12.4993 9.66599C13.7885 9.66599 14.8336 10.7109 14.8336 12C14.8336 13.289 13.7885 14.3339 12.4993 14.3339C11.2101 14.3339 10.165 13.289 10.165 12Z" fill="#1A1A1A"/>
<path fill-rule="evenodd" clip-rule="evenodd" d="M9.67144 6.30202C10.4098 6.2684 10.631 6.26118 12.5004 6.26118L12.4993 6.26229L13.1776 6.26274C14.4386 6.26475 14.6906 6.2741 15.3283 6.30313C16.0108 6.33425 16.3815 6.44817 16.6283 6.54403C16.9327 6.65611 17.2081 6.8351 17.4342 7.06779C17.6669 7.2938 17.8459 7.56916 17.958 7.87356C18.0539 8.12029 18.1678 8.49095 18.1989 9.17336C18.228 9.81094 18.2373 10.0629 18.2393 11.3237V12.6801C18.2373 13.941 18.228 14.1929 18.1989 14.8305C18.1678 15.5129 18.0539 15.8835 17.958 16.1303C17.7222 16.7405 17.2397 17.2229 16.6294 17.4587C16.3826 17.5545 16.0119 17.6685 15.3294 17.6996C14.6584 17.7301 14.4143 17.7389 12.971 17.7402H12.0298C10.5865 17.7389 10.3424 17.7301 9.67144 17.6996C8.98893 17.6685 8.61821 17.5545 8.37144 17.4587C8.067 17.3466 7.79159 17.1676 7.56555 16.9349C7.33283 16.7089 7.15382 16.4335 7.04172 16.1291C6.94584 15.8824 6.83191 15.5118 6.80078 14.8293C6.76868 14.1246 6.76064 13.8911 6.75998 12.2457L6.75993 12.0008C6.75993 10.1317 6.76716 9.9105 6.80078 9.17225C6.83191 8.48984 6.94584 8.11918 7.04172 7.87245C7.15382 7.56805 7.33283 7.29269 7.56555 7.06667C7.79159 6.83399 8.067 6.655 8.37144 6.54292C8.61821 6.44706 8.98893 6.33314 9.67144 6.30202ZM15.0415 9.45905C14.3673 8.78497 13.4528 8.40634 12.4993 8.40648C11.0452 8.40648 9.73425 9.28231 9.1778 10.6255C8.62136 11.9688 8.929 13.5149 9.95726 14.5429C10.9855 15.571 12.5319 15.8784 13.8753 15.322C15.2187 14.7655 16.0945 13.4547 16.0944 12.0008C16.0945 11.0475 15.7157 10.1331 15.0415 9.45905ZM17.0765 8.26422C17.0765 7.80033 16.7004 7.42427 16.2364 7.42427C15.7725 7.42427 15.3964 7.80033 15.3964 8.26422C15.3964 8.72812 15.7725 9.10417 16.2364 9.10417C16.7004 9.10417 17.0765 8.72812 17.0765 8.26422Z" fill="#1A1A1A"/>
<path fill-rule="evenodd" clip-rule="evenodd" d="M24.5 12C24.5 18.6274 19.1274 24 12.5 24C5.87258 24 0.5 18.6274 0.5 12C0.5 5.37258 5.87258 0 12.5 0C19.1274 0 24.5 5.37258 24.5 12ZM15.3858 5.04334C14.6408 5.00945 14.4007 5.00111 12.5004 5L11.6152 5.00091C10.4955 5.00379 10.2249 5.01427 9.61391 5.04223C8.86721 5.07641 8.35894 5.19561 7.91347 5.36871C7.44638 5.54444 7.02323 5.81989 6.67351 6.17588C6.31797 6.52568 6.04296 6.94876 5.86761 7.41566C5.69309 7.86106 5.57471 8.36981 5.54081 9.11473C5.50998 9.79194 5.50029 10.0519 5.49879 11.5219L5.49878 12.4797C5.50025 13.9494 5.50973 14.2081 5.54081 14.8869C5.57499 15.6335 5.69309 16.1405 5.86622 16.5859C6.04198 17.053 6.31747 17.476 6.67351 17.8257C7.02329 18.1817 7.44642 18.4572 7.91347 18.6332C8.35811 18.806 8.86777 18.9243 9.6128 18.9585C10.2562 18.988 10.5231 18.9979 11.8086 19L12.9783 19.0003C14.4482 18.9988 14.707 18.9893 15.3858 18.9585C16.1325 18.9246 16.6397 18.806 17.0851 18.6332C18.0255 18.2694 18.7689 17.5261 19.1327 16.5859C19.3055 16.1414 19.4239 15.6318 19.4581 14.8869C19.4922 14.1419 19.5 13.9019 19.5 12.0008C19.5 10.0997 19.492 9.86132 19.4581 9.11473C19.4242 8.36814 19.3055 7.86106 19.1327 7.41566C18.9567 6.94867 18.6811 6.52561 18.3251 6.17588C17.9752 5.82039 17.5521 5.54542 17.0851 5.3701C16.6397 5.19561 16.1308 5.07724 15.3858 5.04334Z" fill="#1A1A1A"/>
</g>
</svg>
