<svg width="25" height="24" viewBox="0 0 25 24" fill="none" xmlns="http://www.w3.org/2000/svg">
<g opacity="0.4">
<g clip-path="url(#clip0_3256_4230)">
<path d="M23.6551 13.8925C24.3711 7.86554 23.3111 4.06054 21.3991 2.33954L21.4001 2.33854C18.3141 -0.600464 7.89208 -1.03546 4.20008 2.47054C2.54208 4.18554 1.95808 6.70254 1.89408 9.81854C1.83008 12.9355 1.75408 18.7745 7.19508 20.3585H7.20008L7.19508 22.7775C7.19508 22.7775 7.15808 23.7575 7.78408 23.9545C8.50008 24.1865 8.82408 23.7315 11.0511 21.0715C14.7751 21.3945 17.6351 20.6545 17.9601 20.5465C18.7121 20.2945 22.9671 19.7315 23.6551 13.8925ZM11.4181 19.3695C11.4181 19.3695 9.06108 22.3085 8.32808 23.0715C8.08808 23.3195 7.82508 23.2965 7.82908 22.8045C7.82908 22.4815 7.84708 18.7885 7.84708 18.7885C3.23408 17.4665 3.50608 12.4945 3.55608 9.89354C3.60608 7.29154 4.08208 5.16054 5.48608 3.72554C8.72508 0.688536 17.8621 1.36754 20.1901 3.55554C23.0361 6.07854 22.0231 13.2065 22.0291 13.4495C21.4441 18.3235 17.9961 18.6325 17.3621 18.8435C17.0911 18.9335 14.5761 19.5805 11.4181 19.3695Z" fill="#1A1A1A"/>
<path d="M12.7214 4.29688C12.3364 4.29688 12.3364 4.89688 12.7214 4.90188C15.7084 4.92488 18.1684 7.00688 18.1954 10.8259C18.1954 11.2289 18.7854 11.2239 18.7804 10.8209H18.7794C18.7474 6.70588 16.0614 4.31988 12.7214 4.29688Z" fill="#1A1A1A"/>
<path d="M16.6519 10.193C16.6429 10.591 17.2319 10.61 17.2369 10.207C17.2859 7.93804 15.8869 6.06904 13.2579 5.87204C12.8729 5.84404 12.8329 6.44904 13.2169 6.47704C15.4969 6.65004 16.6979 8.20604 16.6519 10.193Z" fill="#1A1A1A"/>
<path d="M16.0202 12.7741C15.5262 12.4881 15.0232 12.6661 14.8152 12.9471L14.3802 13.5101C14.1592 13.7961 13.7462 13.7581 13.7462 13.7581C10.7322 12.9611 9.92624 9.8071 9.92624 9.8071C9.92624 9.8071 9.88924 9.3801 10.1652 9.1511L10.7092 8.7011C10.9812 8.4851 11.1532 7.9651 10.8762 7.4541C10.1362 6.1171 9.63924 5.6561 9.38624 5.3021C9.12024 4.9691 8.72024 4.8941 8.30424 5.1191H8.29524C7.43024 5.6251 6.48324 6.5721 6.78624 7.5471C7.30324 8.5751 8.25324 11.8521 11.2812 14.3281C12.7042 15.4991 14.9562 16.6991 15.9122 16.9761L15.9212 16.9901C16.8632 17.3041 17.7792 16.3201 18.2682 15.4291V15.4221C18.4852 14.9911 18.4132 14.5831 18.0962 14.3161C17.5342 13.7681 16.6862 13.1631 16.0202 12.7741Z" fill="#1A1A1A"/>
<path d="M13.6684 8.10369C14.6294 8.15969 15.0954 8.66169 15.1454 9.69269C15.1634 10.0957 15.7484 10.0677 15.7304 9.66469C15.6664 8.31869 14.9644 7.56869 13.7004 7.49869C13.3154 7.47569 13.2794 8.08069 13.6684 8.10369Z" fill="#1A1A1A"/>
</g>
</g>
<defs>
<clipPath id="clip0_3256_4230">
<rect width="24" height="24" fill="white" transform="translate(0.5)"/>
</clipPath>
</defs>
</svg>
