<svg width="24" height="24" viewBox="0 0 24 24" fill="none" xmlns="http://www.w3.org/2000/svg">
<path d="M8.19121 5.28998C8.19121 4.21295 6.88155 3.33984 5.26601 3.33984C3.65046 3.33984 2.3408 4.21295 2.3408 5.28998" stroke="#1A1A1A" stroke-width="1.8" stroke-linecap="round"/>
<path d="M21.842 5.28998C21.842 4.21295 20.5323 3.33984 18.9168 3.33984C17.3012 3.33984 15.9916 4.21295 15.9916 5.28998" stroke="#1A1A1A" stroke-width="1.8" stroke-linecap="round"/>
<path d="M4.291 18.2232C4.291 19.8388 6.03721 21.1484 8.19128 21.1484C10.3453 21.1484 12.0916 19.8388 12.0916 18.2232L12.0916 15.298" stroke="#1A1A1A" stroke-width="1.8" stroke-linecap="round"/>
<path d="M19.8921 18.2232C19.8921 19.8388 18.1459 21.1484 15.9918 21.1484C13.8378 21.1484 12.0916 19.8388 12.0916 18.2232L12.0916 15.298" stroke="#1A1A1A" stroke-width="1.8" stroke-linecap="round"/>
<ellipse cx="12.0915" cy="12.8595" rx="2.92521" ry="2.43767" stroke="#1A1A1A" stroke-width="1.8" stroke-linecap="round"/>
</svg>
